<svg xmlns="http://www.w3.org/2000/svg" xmlns:xlink="http://www.w3.org/1999/xlink" version="1.1" x="0px" y="0px" viewBox="0 0 512 640" style="enable-background:new 0 0 512 512;" xml:space="preserve"><path d="M109.2,367.4c-1.4,0-2.8,0-4.2,0c-50.7-0.6-82.5-13.1-89.5-35.1c-8.9-28,24.6-66.7,89.5-103.6l2,3.5  c-30.6,17.4-54.8,35.7-70.2,52.9C26,297.2,14.2,315,19.3,331.2c6.3,19.9,37.6,31.7,85.7,32.3c49.6,0.6,111.9-10.1,175.5-30.3  c63.6-20.2,120.7-47.3,160.9-76.4c39-28.3,57.8-55.9,51.4-75.8c-6.4-20.1-38-31.9-86.7-32.3v-4c51.3,0.5,83.4,13,90.5,35.1  c7,22-11.8,50.5-52.9,80.3c-40.5,29.3-98,56.7-162,76.9C219.5,356.7,158.5,367.4,109.2,367.4z"/><circle cx="103.1" cy="232" r="16.1"/><circle cx="471.3" cy="232" r="16.1"/><text x="0" y="527" fill="#000000" font-size="5px" font-weight="bold" font-family="'Helvetica Neue', Helvetica, Arial-Unicode, Arial, Sans-serif">Created by WiStudio</text><text x="0" y="532" fill="#000000" font-size="5px" font-weight="bold" font-family="'Helvetica Neue', Helvetica, Arial-Unicode, Arial, Sans-serif">from the Noun Project</text></svg>